<svg width="9" height="17" viewBox="0 0 9 17" fill="none" xmlns="http://www.w3.org/2000/svg">
<path opacity="0.07" d="M2.11318 6.8533C1.45479 6.28356 1.01587 4.89034 1.01587 3.94876C1.01622 3.50182 1.11251 3.06022 1.29816 2.6541C1.48381 2.24798 1.75444 1.8869 2.09159 1.59552C2.42874 1.30413 2.82447 1.0893 3.25176 0.965683C3.67906 0.842064 4.12785 0.812571 4.56752 0.879217C5.00719 0.945864 5.42738 1.10708 5.7994 1.35186C6.17142 1.59664 6.48652 1.91923 6.72319 2.29759C6.95986 2.67596 7.11253 3.1012 7.17078 3.54429C7.22902 3.98737 7.19147 4.43788 7.06068 4.86505L5.91721 6.83469L2.11318 6.8533Z" fill="white"/>
<path d="M5.32583 6.42142C5.48809 6.2456 5.89139 5.6783 5.93243 4.35243C5.93407 4.30858 5.92255 4.26525 5.89935 4.22808C5.87615 4.19091 5.84235 4.16163 5.80236 4.14404C5.12923 3.85768 4.39354 3.75238 3.66764 3.83851C3.06332 3.91778 2.42461 4.06646 1.88268 4.36611C1.84292 4.38768 1.81082 4.42114 1.79082 4.46187C1.77082 4.50259 1.76391 4.54855 1.77105 4.5934C1.82486 4.92442 1.90522 5.25052 2.01136 5.56851C2.13696 5.93853 2.31129 6.36017 2.62432 6.6143C2.66779 6.64986 2.72304 6.66754 2.77896 6.66378L5.18179 6.49128C5.23689 6.48722 5.28839 6.46225 5.32583 6.42142Z" fill="#F9D8C6"/>
<path d="M5.42736 4.00525C5.3621 5.20523 5.2406 5.7065 5.1425 5.9171C5.12638 5.95148 5.09889 5.97917 5.06472 5.99543C5.03055 6.0117 4.99182 6.01554 4.95515 6.00629C3.78775 5.72959 2.26929 6.16351 2.26929 6.16351C2.36429 6.34418 2.49375 6.50429 2.65028 6.6347C2.68097 6.65766 2.71896 6.66851 2.75708 6.66522L5.20277 6.48962C5.2421 6.48677 5.27903 6.46959 5.30665 6.44131C5.45508 6.28998 5.89811 5.72238 5.93337 4.31092C5.9341 4.27915 5.92546 4.24786 5.90854 4.22101C5.89161 4.19416 5.86716 4.17295 5.83826 4.16004C5.70433 4.10063 5.56714 4.04895 5.42736 4.00525Z" fill="#F6C0A4"/>
<path d="M2.11318 6.8533C1.45479 6.28356 1.01587 4.89034 1.01587 3.94876C1.01622 3.50182 1.11251 3.06022 1.29816 2.6541C1.48381 2.24798 1.75444 1.8869 2.09159 1.59552C2.42874 1.30413 2.82447 1.0893 3.25176 0.965683C3.67906 0.842064 4.12785 0.812571 4.56752 0.879217C5.00719 0.945864 5.42738 1.10708 5.7994 1.35186C6.17142 1.59664 6.48652 1.91923 6.72319 2.29759C6.95986 2.67596 7.11253 3.1012 7.17078 3.54429C7.22902 3.98737 7.19147 4.43788 7.06068 4.86505" stroke="white" stroke-width="0.58776" stroke-miterlimit="10"/>
<path d="M3.49473 3.32656C3.40814 3.04367 3.36663 2.74878 3.37176 2.45285C3.3668 2.15596 3.4083 1.86013 3.49473 1.57619C3.57842 1.32897 3.69452 1.19456 3.82137 1.19706C3.94822 1.19956 4.06146 1.33677 4.14281 1.58251C4.22598 1.86128 4.2659 2.15127 4.26117 2.44226C4.26575 2.73416 4.22583 3.02504 4.14281 3.3048C4.06146 3.55268 3.94748 3.69253 3.82137 3.69798C3.69525 3.70342 3.57842 3.57179 3.49473 3.32656ZM3.61734 1.60634C3.53482 1.88016 3.49533 2.16524 3.50029 2.4513C3.49517 2.73648 3.53467 3.0207 3.61734 3.29355C3.68676 3.49841 3.77689 3.61349 3.8646 3.60974C3.95231 3.60599 4.0409 3.48473 4.10886 3.27715C4.18873 3.00635 4.22702 2.72489 4.2224 2.44248C4.22715 2.16095 4.18886 1.88037 4.10886 1.61053C4.0409 1.40464 3.95187 1.28529 3.8646 1.28382C3.77733 1.28235 3.68676 1.39979 3.61734 1.60634Z" fill="url(#paint0_linear_2_2963)"/>
<path d="M5.32583 6.42142C5.48809 6.2456 5.89139 5.6783 5.93243 4.35243C5.93407 4.30858 5.92255 4.26525 5.89935 4.22808C5.87615 4.19091 5.84235 4.16163 5.80236 4.14404C5.12923 3.85768 4.39354 3.75238 3.66764 3.83851C3.06332 3.91778 2.42461 4.06646 1.88268 4.36611C1.84292 4.38768 1.81082 4.42114 1.79082 4.46187C1.77082 4.50259 1.76391 4.54855 1.77105 4.5934C1.82486 4.92442 1.90522 5.25052 2.01136 5.56851C2.13696 5.93853 2.31129 6.36017 2.62432 6.6143C2.66779 6.64986 2.72304 6.66754 2.77897 6.66378L5.18179 6.49128C5.23689 6.48722 5.28839 6.46225 5.32583 6.42142V6.42142Z" stroke="#F2A881" stroke-width="0.29388" stroke-miterlimit="10"/>
<path d="M1.91187 7.3312V6.68779C1.91187 6.68779 3.68586 5.87893 5.89877 6.39366L5.58787 7.05546C5.58787 7.05546 3.55784 6.68779 1.91187 7.3312Z" fill="#3D05DD"/>
<path d="M1.91187 7.33134L1.92401 7.01272C1.92459 6.99801 2.4873 6.80028 3.51409 6.67947C4.04013 6.61877 4.57146 6.6206 5.09708 6.68491C5.45071 6.7155 5.51179 6.30989 5.52708 6.31313C5.52708 6.31313 5.72211 6.35276 5.89877 6.39402L5.58787 7.05581C5.58787 7.05581 3.55784 6.68793 1.91187 7.33134Z" fill="#250091"/>
<path d="M3.05225 5.43692C3.03793 5.5257 3.05114 5.61676 3.09007 5.69774C3.17002 5.85723 3.34969 5.92569 3.51524 5.95253C3.72519 5.98657 3.95672 5.96076 4.11679 5.8073C4.24488 5.68457 4.35893 5.415 4.24012 5.2536C4.21063 5.21963 4.17355 5.19317 4.13192 5.17638C4.09029 5.1596 4.04529 5.15298 4.00062 5.15705C3.83536 5.1619 3.76455 5.26536 3.62936 5.32573C3.50961 5.37912 3.40573 5.28272 3.29168 5.25588C3.24935 5.2448 3.20449 5.24912 3.16501 5.26806C3.12554 5.28701 3.09399 5.31936 3.07595 5.35941C3.06467 5.38408 3.0567 5.41014 3.05225 5.43692Z" fill="#F653A4"/>
<path d="M3.05225 5.43692C3.03793 5.5257 3.05114 5.61676 3.09007 5.69774C3.17002 5.85723 3.34969 5.92569 3.51524 5.95253C3.72519 5.98657 3.95672 5.96076 4.11679 5.8073C4.24488 5.68457 4.35893 5.415 4.24012 5.2536C4.21063 5.21963 4.17355 5.19317 4.13192 5.17638C4.09029 5.1596 4.04529 5.15298 4.00062 5.15705C3.83536 5.1619 3.76455 5.26536 3.62936 5.32573C3.50961 5.37912 3.40573 5.28272 3.29168 5.25588C3.24935 5.2448 3.20449 5.24912 3.16501 5.26806C3.12554 5.28701 3.09399 5.31936 3.07595 5.35941C3.06467 5.38408 3.0567 5.41014 3.05225 5.43692V5.43692Z" stroke="#E80078" stroke-width="0.58776" stroke-miterlimit="10"/>
<path d="M1.91187 7.3312V6.68779C1.91187 6.68779 3.68586 5.87893 5.89877 6.39366L5.58787 7.05546C5.58787 7.05546 3.55784 6.68779 1.91187 7.3312Z" stroke="#3D05DD" stroke-width="0.29388" stroke-miterlimit="10"/>
<path d="M2.90695 4.89164C3.09818 4.88471 3.24132 4.54738 3.22665 4.13819C3.21198 3.72899 3.04506 3.40289 2.85383 3.40982C2.66259 3.41675 2.51946 3.75408 2.53413 4.16327C2.5488 4.57246 2.71572 4.89857 2.90695 4.89164Z" fill="black"/>
<g opacity="0.25">
<path d="M6.64454 3.72779C6.64008 3.72867 6.63547 3.72926 6.63086 3.7297C6.61172 3.7314 6.59243 3.7293 6.5741 3.72352C6.55576 3.71773 6.53874 3.70837 6.524 3.69597C6.50927 3.68357 6.49711 3.66837 6.48822 3.65125C6.47933 3.63412 6.47388 3.6154 6.47219 3.59616C6.37621 2.50361 5.77781 2.01094 5.77174 2.00616C5.74127 1.982 5.72161 1.94667 5.71707 1.90793C5.71253 1.86919 5.72348 1.83023 5.74752 1.79961C5.77156 1.76899 5.80671 1.74923 5.84525 1.74466C5.88379 1.7401 5.92255 1.75111 5.95301 1.77527C5.98169 1.79799 6.65595 2.34383 6.76371 3.57028C6.7669 3.60673 6.75646 3.64307 6.73442 3.67219C6.71238 3.70132 6.68034 3.72114 6.64454 3.72779Z" fill="white"/>
</g>
<path opacity="0.25" d="M6.71173 4.35083C6.78624 4.33709 6.82816 4.22475 6.80536 4.09993C6.78256 3.9751 6.70368 3.88506 6.62917 3.89881C6.55466 3.91256 6.51274 4.0249 6.53554 4.14972C6.55834 4.27454 6.63722 4.36458 6.71173 4.35083Z" fill="white"/>
<path d="M7.95774 6.09346C8.32351 5.52968 8.61613 4.57376 7.95774 4.25514C7.29935 3.93653 6.4215 5.52968 6.4215 5.52968C6.4215 5.52968 5.8825 6.48561 5.63538 6.99754C3.04484 6.67606 1.91029 7.34351 1.91029 7.34351C0.837339 9.08381 0.520361 10.8976 0.934926 11.7064C1.25293 12.327 1.77159 12.075 1.99566 11.9241C2.16231 12.9871 2.48529 14.0189 3.04557 14.4271C3.63081 14.8536 4.31773 14.7074 4.72329 14.1106C4.82226 14.2302 4.9434 14.3294 5.08 14.4027C6.2261 14.9909 6.88449 13.9859 6.56751 13.2016C6.25054 12.4173 5.80781 9.84737 6.39238 8.54452C6.81324 7.60698 7.59197 6.65723 7.95774 6.09346Z" fill="#E5DDFA"/>
<path d="M3.78353 10.7996C3.78353 10.7996 3.85061 13.1158 4.66745 14.1085C4.5725 14.2746 4.43829 14.4147 4.27667 14.5162C4.11505 14.6177 3.93103 14.6777 3.74088 14.6907C3.74088 14.6907 3.1465 14.755 2.63135 14.0105C2.63135 14.0105 3.72866 14.1392 3.7896 13.5999C3.85054 13.0606 3.42997 11.0845 3.78353 10.7996Z" fill="#B59FF2"/>
<path d="M1.78687 8.85095C1.78687 8.85095 1.76858 11.0845 1.96676 11.8903C1.96676 11.8903 1.66975 12.1582 1.35102 12.0925C0.994389 12.019 0.6987 11.6513 0.741422 10.6341C0.795394 10.7162 0.875172 10.7776 0.968002 10.8087C1.06083 10.8398 1.16136 10.8388 1.2535 10.8057C1.59484 10.6954 1.5034 9.3534 1.59184 9.10832C1.66821 8.89647 1.78687 8.85095 1.78687 8.85095Z" fill="#B59FF2"/>
<path d="M5.47361 7.28525L5.60163 6.99576C5.60163 6.99576 3.17386 6.66486 1.87537 7.34504C1.87537 7.34504 1.8712 7.44283 2.22739 7.33121C2.81648 7.15255 3.42733 7.05666 4.04256 7.04627C4.52721 7.02789 5.34105 7.03708 5.47361 7.28525Z" fill="#B59FF2"/>
<path d="M1.78995 8.86938C1.78417 9.55942 1.79536 10.2695 1.84789 10.9577C1.9503 12.2984 2.27767 13.8944 3.00921 14.4275C3.60549 14.8621 4.2772 14.7278 4.67954 14.1028" stroke="#3D05DD" stroke-width="0.58776" stroke-linecap="round" stroke-linejoin="round"/>
<path d="M3.77576 10.7996C3.77576 10.7996 3.89771 13.8144 5.04374 14.4027C6.18978 14.9909 6.84824 13.9859 6.53126 13.2016C6.21428 12.4173 5.77155 9.84738 6.35613 8.54452C6.77677 7.60698 7.55542 6.65723 7.92119 6.09346C8.28696 5.52968 8.57958 4.57376 7.92119 4.25514C7.2628 3.93653 6.38495 5.52968 6.38495 5.52968C6.38495 5.52968 5.55582 7.00034 5.48267 7.26998" stroke="#3D05DD" stroke-width="0.58776" stroke-linecap="round" stroke-linejoin="round"/>
<path d="M5.59887 6.99745C3.00833 6.67597 1.87378 7.34342 1.87378 7.34342C0.800823 9.08372 0.491161 10.8939 0.898411 11.7063C1.27025 12.4481 1.94247 11.9086 1.94247 11.9086" stroke="#3D05DD" stroke-width="0.58776" stroke-linecap="round" stroke-linejoin="round"/>
<path d="M4.83626 4.1447C4.8724 3.73116 4.74717 3.38229 4.55656 3.36546C4.36595 3.34863 4.18214 3.67022 4.146 4.08375C4.10986 4.49728 4.23509 4.84616 4.4257 4.86299C4.61631 4.87982 4.80012 4.55823 4.83626 4.1447Z" fill="black"/>
<path d="M4.06255 2.44453C4.06398 2.51081 4.03958 2.57503 3.99456 2.62349C3.94954 2.67194 3.88747 2.70079 3.82158 2.70388C3.78889 2.70371 3.75656 2.69697 3.7265 2.68406C3.69644 2.67116 3.66924 2.65234 3.64651 2.62872C3.62379 2.6051 3.60598 2.57715 3.59415 2.54652C3.58232 2.51589 3.57669 2.48319 3.57761 2.45034C3.57611 2.38352 3.60089 2.31881 3.64656 2.27024C3.69224 2.22167 3.75513 2.19317 3.82158 2.19092C3.85401 2.19153 3.886 2.19859 3.91571 2.21169C3.94541 2.22479 3.97224 2.24368 3.99464 2.26726C4.01704 2.29083 4.03458 2.31864 4.04623 2.34907C4.05789 2.37949 4.06344 2.41194 4.06255 2.44453Z" fill="#77EEFF"/>
<path d="M4.81983 3.04527C4.75963 3.16005 4.59803 3.20175 4.36284 3.16196C4.09241 3.10638 3.83361 3.00411 3.59794 2.85967C3.34654 2.71778 3.12052 2.53464 2.92923 2.31781C2.76098 2.11508 2.70406 1.9372 2.77078 1.81838C2.8375 1.69955 3.01358 1.66278 3.26508 1.71308C3.54067 1.77728 3.80352 1.88773 4.04257 2.03978C4.28154 2.18047 4.4955 2.36022 4.67564 2.57164C4.8289 2.76312 4.87982 2.93078 4.81983 3.04527ZM2.82272 1.90338C2.77656 1.98574 2.83135 2.1306 2.97225 2.29987C3.15722 2.50902 3.37555 2.68575 3.61827 2.82283C3.84591 2.96283 4.09586 3.06234 4.35713 3.11696C4.55421 3.15071 4.69042 3.12432 4.73234 3.04439C4.77426 2.96446 4.72444 2.82783 4.59539 2.6676C4.42026 2.46369 4.21259 2.29048 3.9809 2.15508C3.74924 2.00836 3.49467 1.90186 3.22785 1.84007C3.01651 1.79823 2.86837 1.82117 2.82235 1.90338H2.82272Z" fill="url(#paint1_linear_2_2963)"/>
<path d="M2.77083 3.10163C2.70411 2.98442 2.76073 2.80515 2.92928 2.59845C3.12044 2.37711 3.34632 2.18869 3.59798 2.04063C3.83289 1.8909 4.09146 1.7825 4.36259 1.7201C4.59778 1.67473 4.75931 1.71275 4.81959 1.82591C4.87987 1.93908 4.82866 2.10784 4.6754 2.30299C4.30327 2.73375 3.81262 3.04415 3.26528 3.19509C3.01363 3.25142 2.83732 3.21847 2.77083 3.10163ZM4.73195 1.82907C4.69003 1.75032 4.55382 1.72694 4.35674 1.7654C4.09471 1.82653 3.84488 1.93187 3.61788 2.07695C3.37493 2.22004 3.15674 2.40188 2.97186 2.61536C2.83096 2.78794 2.77617 2.93412 2.82233 3.01538C2.86849 3.09663 3.01641 3.1159 3.22702 3.0692C3.75702 2.92334 4.23271 2.62418 4.595 2.20887C4.72405 2.04578 4.77379 1.90761 4.73195 1.82907Z" fill="url(#paint2_linear_2_2963)"/>
<g style="mix-blend-mode:multiply">
<path d="M5.9779 15.5263C5.60054 15.5195 5.22375 15.5586 4.85572 15.6427C4.59558 15.5597 4.1579 15.5052 3.66169 15.5052C2.86365 15.5052 2.21667 15.6461 2.21667 15.8199C2.21667 15.9937 2.86365 16.1345 3.66169 16.1345C4.03903 16.1413 4.4158 16.1022 4.78381 16.0181C5.04402 16.101 5.4817 16.1555 5.9779 16.1555C6.77594 16.1555 7.42285 16.0146 7.42285 15.8409C7.42285 15.6671 6.77594 15.5263 5.9779 15.5263Z" fill="#D7D7D7"/>
</g>
<path opacity="0.36" d="M2.70555 3.85957C2.72962 3.73498 2.7009 3.62458 2.64141 3.61296C2.58192 3.60135 2.51418 3.69293 2.49011 3.81751C2.46604 3.9421 2.49476 4.0525 2.55425 4.06412C2.61374 4.07573 2.68148 3.98415 2.70555 3.85957Z" fill="white"/>
<path opacity="0.36" d="M4.36014 3.82527C4.38716 3.70128 4.36106 3.59019 4.30185 3.57716C4.24264 3.56412 4.17274 3.65407 4.14572 3.77806C4.1187 3.90205 4.1448 4.01313 4.20401 4.02617C4.26322 4.0392 4.33312 3.94926 4.36014 3.82527Z" fill="white"/>
<path d="M7.56172 4.76958C7.70844 4.65106 7.7815 4.49758 7.7249 4.42678C7.6683 4.35598 7.50347 4.39466 7.35674 4.51318C7.21001 4.6317 7.13695 4.78518 7.19355 4.85598C7.25016 4.92678 7.41499 4.8881 7.56172 4.76958Z" fill="#B59FF2"/>
<defs>
<linearGradient id="paint0_linear_2_2963" x1="3.37134" y1="2.44758" x2="4.71823" y2="2.44758" gradientUnits="userSpaceOnUse">
<stop stop-color="#77EEFF"/>
<stop offset="0.204" stop-color="#76EBFD"/>
<stop offset="0.341" stop-color="#72E2F8"/>
<stop offset="0.459" stop-color="#6DD3EF"/>
<stop offset="0.567" stop-color="#66BDE3"/>
<stop offset="0.666" stop-color="#5CA1D3"/>
<stop offset="0.76" stop-color="#507FBF"/>
<stop offset="0.85" stop-color="#4256A8"/>
<stop offset="0.935" stop-color="#33298E"/>
<stop offset="1" stop-color="#250077"/>
</linearGradient>
<linearGradient id="paint1_linear_2_2963" x1="3.28344" y1="2.83648" x2="4.25037" y2="1.31412" gradientUnits="userSpaceOnUse">
<stop stop-color="#77EEFF"/>
<stop offset="0.204" stop-color="#76EBFD"/>
<stop offset="0.341" stop-color="#72E2F8"/>
<stop offset="0.459" stop-color="#6DD3EF"/>
<stop offset="0.567" stop-color="#66BDE3"/>
<stop offset="0.666" stop-color="#5CA1D3"/>
<stop offset="0.76" stop-color="#507FBF"/>
<stop offset="0.85" stop-color="#4256A8"/>
<stop offset="0.935" stop-color="#33298E"/>
<stop offset="1" stop-color="#250077"/>
</linearGradient>
<linearGradient id="paint2_linear_2_2963" x1="4.90934" y1="3.24777" x2="3.20175" y2="0.953011" gradientUnits="userSpaceOnUse">
<stop stop-color="#77EEFF"/>
<stop offset="0.378" stop-color="#76ECFD"/>
<stop offset="0.514" stop-color="#74E5FA"/>
<stop offset="0.611" stop-color="#6FD9F3"/>
<stop offset="0.689" stop-color="#6AC8E9"/>
<stop offset="0.757" stop-color="#62B2DD"/>
<stop offset="0.816" stop-color="#5997CD"/>
<stop offset="0.87" stop-color="#4D76BA"/>
<stop offset="0.92" stop-color="#4051A5"/>
<stop offset="0.964" stop-color="#32288D"/>
<stop offset="1" stop-color="#250077"/>
</linearGradient>
</defs>
</svg>
