<svg width="182" height="76" viewBox="0 0 182 76" fill="none" xmlns="http://www.w3.org/2000/svg">
<path d="M34.97 29.7647C34.97 29.7373 34.97 29.7104 34.97 29.6841C35.6696 30.8871 36.0637 32.2433 36.1179 33.6339C36.1179 34.9978 35.4617 36.733 34.1494 38.8395C33.2982 40.2099 32.63 41.4069 31.2322 42.3186C28.4464 44.1355 24.3806 43.7735 21.1869 44.0863C21.179 46.1663 21.2866 48.2452 21.5093 50.3132C21.8382 53.7525 22.0026 55.7739 22.0026 56.3773C22.0026 62.2206 19.8408 65.116 15.521 65.1015C5.65137 65.0685 2.61324 56.8046 1.75558 48.4294C1.07847 41.8196 0.64212 35.192 0.446512 28.5467C0.2724 22.6664 -0.301527 16.2484 0.66899 10.4261C1.27032 6.98361 2.8841 4.62771 5.5103 3.35841C11.2286 -0.354388 20.5759 0.237284 26.9979 1.0877C28.7224 1.33826 30.329 2.11011 31.6024 3.29975C32.8757 4.48938 33.7549 6.03992 34.122 7.74342C34.4891 9.44692 34.3265 11.2219 33.6562 12.8304C32.9858 14.4389 31.8396 15.804 30.3713 16.7425C28.4529 17.9387 22.9353 18.1725 21.9204 20.1804C21.376 21.8082 21.0676 23.5056 21.0047 25.2208C21.0515 26.833 24.3386 25.561 25.0794 25.3684C26.0062 25.0914 26.9522 24.8831 27.9096 24.7453C30.8663 24.8388 33.2197 26.5119 34.97 29.7647Z" fill="url(#paint0_linear_1_2)"/>
<path d="M68.6487 53.9785H68.5681C67.9652 58.6489 66.2431 61.6889 63.402 63.0985C59.5721 64.5086 55.5071 65.1706 51.4277 65.0484C39.8331 64.6921 34.0366 58.3692 34.0366 45.8573V41.0249C34.0366 40.4251 34.064 39.499 34.1172 38.2415C34.1712 37.2597 34.1978 36.5487 34.1978 36.1142C33.9237 25.0823 34.3886 16.2748 35.5923 9.69183C36.5773 6.92645 37.712 5.03941 38.9964 4.03074C40.2804 3.02395 42.265 2.44036 44.9444 2.29446C45.5457 2.25577 46.2022 2.24636 46.9137 2.26624C49.262 2.33342 50.9567 2.8751 51.9976 3.8913C56.248 8.03937 55.853 16.1953 55.853 21.625C55.853 25.0643 55.5252 30.4301 54.8696 37.7224C54.4301 42.7851 54.3763 45.486 54.7084 45.8251C57.1408 44.7949 59.7833 44.3583 62.4178 44.5515C62.9801 44.5397 63.5386 44.646 64.0573 44.8634C64.8855 45.2115 65.6291 45.7338 66.2376 46.3947C66.8461 47.0557 67.3053 47.8398 67.5839 48.6939C68.175 50.4566 68.533 52.289 68.6487 54.1446V53.9785Z" fill="url(#paint1_linear_1_2)"/>
<path d="M156.557 54.1509C156.243 58.1587 154.945 62.1923 152.08 65.1135C148.961 68.2992 144.011 70.1112 139.721 70.9495C138.576 71.1738 137.419 71.3283 136.255 71.4122C131.823 71.6575 127.381 71.173 123.106 69.9782C120.101 69.181 115.977 67.6535 114.033 65.0378C113.215 63.9367 112.806 55.6341 112.806 40.13C112.806 32.0442 112.77 23.9278 113.289 15.8509C113.393 14.2226 113.226 12.517 113.707 10.9339C114.178 9.38376 115.91 8.66797 117.299 8.06261C121.162 6.37952 125.538 6.12802 129.693 6.36984C130.257 6.40208 130.821 6.44427 131.386 6.49639C133.096 6.61573 134.793 6.88328 136.458 7.29602C142.453 9.01458 146.921 11.6762 149.863 15.231C152.837 18.8778 154.48 23.4291 154.52 28.1347C154.22 30.7789 152.937 33.2136 150.925 34.9558C149.194 36.1513 147.329 37.1398 145.368 37.9012C148.865 38.8846 151.877 41.1232 153.826 44.1886C155.848 47.0998 156.812 50.6156 156.557 54.1509V54.1509ZM134.269 51.3989C134.35 51.1571 134.43 50.9153 134.489 50.6735C135.028 48.5777 135.243 44.6053 132.28 44.3329C131.313 44.2442 129.379 44.6053 129.388 45.8644C129.396 46.8317 128.966 55.7421 129.009 55.7405C131.651 55.6373 133.448 53.7366 134.269 51.3989ZM135.822 23.7698C135.699 23.3565 135.488 22.9748 135.204 22.6513C134.919 22.3278 134.567 22.0702 134.172 21.8965C133.343 21.502 132.43 21.3181 131.512 21.3613C131.042 21.379 129.739 21.6442 129.828 22.4035C130.213 25.9978 130.24 29.6214 129.909 33.2211C131.144 32.5464 133.205 31.9136 133.893 30.6263C134.813 28.9005 136.443 25.9132 135.822 23.7682V23.7698Z" fill="url(#paint2_linear_1_2)"/>
<path d="M178.435 22.4447C178.623 25.1709 178.603 27.9075 178.693 30.649C178.8 33.884 178.854 35.9653 178.854 36.8929C179.002 46.511 178.265 56.1223 176.652 65.6053C176.265 68.0819 175.219 70.409 173.625 72.3433C171.746 74.4601 169.392 74.7922 166.693 74.473C161.195 73.8281 158.09 70.9496 157.384 65.7956C156.202 57.8951 155.601 49.9185 155.586 41.93C155.641 34.3529 155.683 26.0503 158.69 19.0028C160.91 13.7963 166.174 11.7553 171.587 12.4099C172.671 12.5292 173.738 12.7699 174.769 13.1273C176.779 13.8471 177.63 16.5265 177.951 18.3668C178.183 19.7168 178.344 21.0779 178.435 22.4447Z" fill="url(#paint3_linear_1_2)"/>
<path d="M113.525 14.6657C114.102 17.4509 114.345 20.2948 114.25 23.1376C114.25 35.6398 112.258 47.0627 108.272 57.4063C107.212 60.1504 105.547 62.6201 103.401 64.632C95.9983 71.6989 82.2345 69.2162 74.68 63.6115C70.7098 60.6969 67.8018 56.564 66.3992 51.8428C65.197 48.0811 64.5957 42.9235 64.5952 36.3701C64.5952 26.5446 65.552 18.397 67.4656 11.9274C68.159 9.80721 69.5265 7.97181 71.3598 6.70082C73.0846 5.31814 75.1823 4.48074 77.3852 4.29549C80.0315 4.14395 82.6166 5.65856 84.4472 7.46176C86.5011 9.48582 86.647 11.7428 86.647 14.465C86.647 16.2674 86.1553 20.0882 85.1719 25.9274C84.6689 28.9155 84.1667 31.9133 83.8507 34.9288C83.747 35.7529 83.695 36.5826 83.6952 37.4132C83.75 39.7967 83.7669 42.2247 85.8111 43.8521C87.8553 45.4796 90.5041 44.3309 91.7761 42.2803C92.8539 40.2761 93.451 38.0489 93.5204 35.7744C94.0992 28.9163 93.4697 22.1122 94.5111 15.271C95.1479 10.7659 96.677 3.4749 102.785 4.0311C105.243 4.30289 107.53 5.42276 109.253 7.19817C111.379 9.21391 112.865 11.811 113.525 14.6657V14.6657Z" fill="url(#paint4_linear_1_2)"/>
<path d="M35.5391 38.6696C35.4166 38.8819 35.2871 39.0968 35.1506 39.3145C34.4751 40.6624 33.4998 41.8376 32.2995 42.75C29.4838 44.6265 25.4373 44.2437 22.1872 44.5621C22.1815 46.6419 22.2907 48.7204 22.5145 50.7882C22.8434 54.2302 23.0078 56.2515 23.0078 56.8523C23.0078 62.6964 20.8459 65.5918 16.5253 65.5773C14.281 65.5037 12.0657 65.047 9.97516 64.2271C6.66137 62.9487 5.24266 59.9178 4.14236 56.754C3.1679 53.8734 2.61276 50.8677 2.49395 47.8291L1.75879 33.1536C1.55485 29.083 1.16875 25.0195 1.14215 20.9416C1.11958 17.602 1.4928 14.2374 1.67417 10.9019C2.2755 7.45831 3.889 5.10214 6.51467 3.83338C9.30531 2.02212 14.3916 1.10642 21.7769 1.15801C24.7321 1.12283 27.68 1.45616 30.5527 2.15029C33.382 2.89188 35.3142 7.13749 35.3142 9.83785C35.3142 13.3309 34.029 15.849 31.4587 17.3924C31.075 17.7705 29.5709 18.2662 26.9447 18.8925C26.0393 19.0716 25.1498 19.3231 24.2846 19.6446C22.3686 20.491 22.72 23.0704 22.238 24.8156C21.4682 27.599 24.566 26.2391 26.0822 25.8441C27.0093 25.5671 27.9555 25.3586 28.9131 25.2202C31.5608 25.3035 33.7251 26.6567 35.4061 29.2796" stroke="#3D05DD" stroke-width="0.806078" stroke-linecap="round" stroke-linejoin="round"/>
<path d="M115.087 14.8208C115.424 16.1472 115.647 17.4998 115.755 18.864C116.061 23.5673 115.966 28.288 115.472 32.9752C114.763 41.3804 112.891 49.6466 109.91 57.5372C108.114 62.231 104.175 66.8071 99.275 68.3701C96.835 69.148 94.0863 68.9884 91.5616 68.8376C85.4972 68.4717 80.4157 66.773 76.3171 63.7416C72.3467 60.8273 69.4385 56.6942 68.0363 51.9729C66.8336 48.2112 66.2323 43.0523 66.2323 36.4962C66.2323 26.6717 67.1891 18.5244 69.1027 12.0543C69.5861 10.6261 70.3594 9.3131 71.3741 8.19774C72.3888 7.08238 73.6229 6.18866 74.9992 5.57264C78.1251 4.07253 81.2979 4.08059 84.2288 6.05629C86.1698 7.36375 87.8263 9.11132 88.185 11.5021C88.8895 16.1967 87.5845 21.4612 86.8098 26.0591C86.0674 30.4683 84.8873 35.3765 85.3661 39.872C85.4598 41.0933 85.8984 42.2629 86.6309 43.2447C87.1095 43.8594 87.7492 44.3293 88.479 44.6021C89.2088 44.8749 89.9999 44.94 90.7644 44.7899C91.4464 44.5836 92.0748 44.2299 92.6051 43.754C93.1353 43.278 93.5546 42.6914 93.8332 42.0356C95.089 39.3989 94.8061 36.4873 94.8359 33.6596C94.7515 30.4428 94.8346 27.2238 95.085 24.0157C95.6444 19.2445 96.0257 14.3428 97.2775 9.69331C98.0836 6.68825 101.173 3.86698 104.425 4.16361C106.884 4.4354 109.171 5.55528 110.893 7.33069C112.964 9.38604 114.417 11.981 115.087 14.8208Z" stroke="#3D05DD" stroke-width="0.806078" stroke-linecap="round" stroke-linejoin="round"/>
<path d="M69.8159 55.7793C69.0743 59.7023 67.4224 62.3 64.8602 63.5725C61.0301 64.982 56.9652 65.6436 52.8859 65.5216C41.2913 65.1661 35.4948 58.8432 35.4948 46.3313V41.4997C35.4948 40.9 35.5222 39.9738 35.5754 38.7163C35.6286 37.7345 35.656 37.0235 35.656 36.5891C35.3819 25.5571 35.8467 16.7496 37.0505 10.1666C38.0355 7.40126 39.1702 5.51423 40.4545 4.50556C41.7386 3.49876 43.7224 2.91517 46.4018 2.76927C47.0037 2.73112 47.6601 2.72171 48.371 2.74106C50.936 2.8136 52.9302 3.46652 54.3973 5.62761C56.0094 8.00635 56.5052 10.5382 56.8252 13.3257C57.1536 16.2393 57.3151 19.1693 57.3088 22.1014C57.3088 25.5407 56.981 30.9065 56.3254 38.1988C55.8858 43.262 55.8308 45.9629 56.1602 46.3015C58.5928 45.2712 61.2355 44.8341 63.8703 45.0263C64.4324 45.0146 64.9906 45.1209 65.5091 45.3382C66.0398 45.5413 66.535 45.8272 66.9761 46.1854" stroke="#3D05DD" stroke-width="0.806078" stroke-linecap="round" stroke-linejoin="round"/>
<path d="M157.901 54.7404C157.412 60.6368 155.266 64.805 151.235 67.4901C148.593 69.2506 145.361 70.1961 142.347 71.0811C137.436 72.5232 132.197 72.0484 127.244 71.0811C123.335 70.317 119.345 68.966 116.309 66.2923C116.027 66.0429 115.754 65.7831 115.492 65.5128C114.729 64.4874 114.322 57.2094 114.27 43.6785M114.851 13.1484C115.187 9.92405 118.246 8.50294 121.084 7.72104C124.926 6.767 128.907 6.51253 132.839 6.96978C134.549 7.08882 136.246 7.35664 137.91 7.77022C143.906 9.48797 148.374 12.1504 151.316 15.7044C155.686 20.9851 158.479 30.2944 152.378 35.4292C150.647 36.6246 148.782 37.6134 146.821 38.3754C150.319 39.3581 153.331 41.597 155.279 44.6628C156.232 46.0315 156.979 47.5318 157.499 49.1163M135.722 51.8683C136.084 50.8873 136.271 49.8506 136.275 48.8052C136.275 46.2935 135.429 44.9589 133.739 44.8014C132.889 44.7607 132.046 44.9767 131.32 45.4213C131.21 45.4559 131.116 45.5301 131.056 45.6297C130.997 45.7294 130.976 45.8474 130.998 45.9614C130.998 47.1463 130.756 48.324 130.756 49.492C130.676 50.0046 130.073 56.2308 130.472 56.2131C133.062 56.1018 134.872 54.1809 135.722 51.8715V51.8683ZM137.141 24.2908C136.898 23.7079 136.516 23.1932 136.028 22.7914C135.541 22.3897 134.963 22.113 134.344 21.9854C133.791 21.8313 133.213 21.7915 132.645 21.8685C132.284 21.9354 131.22 22.361 131.281 22.8777C131.665 26.472 131.692 30.0956 131.362 33.6953C132.419 33.2033 133.451 32.6571 134.452 32.0589C136.078 30.9385 137.017 28.4235 137.319 26.5405C137.457 25.7879 137.396 25.0124 137.141 24.2908V24.2908Z" stroke="#3D05DD" stroke-width="0.806078" stroke-linecap="round" stroke-linejoin="round"/>
<path d="M180.836 22.9369C181.002 25.6841 180.917 28.4989 181.007 31.1468C181.115 34.3819 181.168 36.4632 181.168 37.3907C181.317 47.0088 180.579 56.6202 178.966 66.1032C178.59 68.5774 177.543 70.9015 175.94 72.8235C174.068 74.8943 171.682 75.2868 169.008 74.9708C163.51 74.326 160.405 71.4475 159.699 66.2934C158.517 58.3929 157.916 50.4163 157.901 42.4279C157.927 38.8433 158.073 35.2538 158.397 31.6861C158.835 26.8496 159.254 21.731 161.918 17.4991C162.755 16.3165 163.829 15.3222 165.073 14.5803C167.736 13.0194 170.856 12.4281 173.905 12.9069C176.984 13.2785 179.292 14.6634 180.105 17.8482C180.508 19.5177 180.753 21.2215 180.836 22.9369Z" stroke="#3D05DD" stroke-width="0.806078" stroke-linecap="round" stroke-linejoin="round"/>
<path opacity="0.36" d="M7.40158 9.85229C8.08025 7.89099 7.86716 6.03694 6.92564 5.71114C5.98411 5.38534 4.67068 6.71118 3.99201 8.67248C3.31334 10.6338 3.52642 12.4878 4.46795 12.8136C5.40947 13.1394 6.7229 11.8136 7.40158 9.85229Z" fill="white"/>
<path opacity="0.36" d="M42.6482 9.04763C43.562 7.18416 43.5775 5.31792 42.683 4.87927C41.7884 4.44062 40.3225 5.59567 39.4087 7.45915C38.495 9.32262 38.4794 11.1889 39.374 11.6275C40.2685 12.0662 41.7345 10.9111 42.6482 9.04763Z" fill="white"/>
<path opacity="0.36" d="M75.3989 12.0419C76.5119 10.2902 76.7325 8.43695 75.8915 7.90263C75.0506 7.36832 73.4666 8.35526 72.3536 10.107C71.2405 11.8588 71.02 13.712 71.8609 14.2463C72.7018 14.7806 74.2858 13.7937 75.3989 12.0419Z" fill="white"/>
<path opacity="0.36" d="M165.433 20.6807C166.546 18.929 166.767 17.0758 165.926 16.5414C165.085 16.0071 163.501 16.9941 162.388 18.7458C161.275 20.4976 161.054 22.3508 161.895 22.8851C162.736 23.4194 164.32 22.4325 165.433 20.6807Z" fill="white"/>
<path opacity="0.36" d="M102.963 11.4109C103.795 9.50965 103.73 7.64448 102.817 7.24488C101.905 6.84529 100.49 8.06259 99.6576 9.9638C98.8252 11.865 98.8902 13.7302 99.8029 14.1298C100.716 14.5294 102.13 13.3121 102.963 11.4109Z" fill="white"/>
<path opacity="0.36" d="M120.969 12.9189C122.782 11.9089 123.859 10.3846 123.374 9.51417C122.889 8.64378 121.026 8.75696 119.213 9.76696C117.4 10.777 116.323 12.3013 116.808 13.1717C117.293 14.0421 119.156 13.9289 120.969 12.9189Z" fill="white"/>
<defs>
<linearGradient id="paint0_linear_1_2" x1="26.9022" y1="62.3216" x2="-10.3143" y2="19.3278" gradientUnits="userSpaceOnUse">
<stop stop-color="#3D05DD"/>
<stop offset="0.231" stop-color="#681EDF"/>
<stop offset="0.578" stop-color="#A442E2"/>
<stop offset="0.744" stop-color="#BC50E4"/>
<stop offset="0.79" stop-color="#BE54DF"/>
<stop offset="0.844" stop-color="#C660D1"/>
<stop offset="0.902" stop-color="#D275B9"/>
<stop offset="0.962" stop-color="#E49199"/>
<stop offset="1" stop-color="#F2A881"/>
</linearGradient>
<linearGradient id="paint1_linear_1_2" x1="51.3427" y1="65.0627" x2="51.3427" y2="2.25612" gradientUnits="userSpaceOnUse">
<stop stop-color="#3D05DD"/>
<stop offset="0.231" stop-color="#681EDF"/>
<stop offset="0.578" stop-color="#A442E2"/>
<stop offset="0.744" stop-color="#BC50E4"/>
<stop offset="0.79" stop-color="#BE54DF"/>
<stop offset="0.844" stop-color="#C660D1"/>
<stop offset="0.902" stop-color="#D275B9"/>
<stop offset="0.962" stop-color="#E49199"/>
<stop offset="1" stop-color="#F2A881"/>
</linearGradient>
<linearGradient id="paint2_linear_1_2" x1="134.701" y1="71.4741" x2="134.701" y2="6.2914" gradientUnits="userSpaceOnUse">
<stop stop-color="#3D05DD"/>
<stop offset="0.231" stop-color="#681EDF"/>
<stop offset="0.578" stop-color="#A442E2"/>
<stop offset="0.744" stop-color="#BC50E4"/>
<stop offset="0.79" stop-color="#BE54DF"/>
<stop offset="0.844" stop-color="#C660D1"/>
<stop offset="0.902" stop-color="#D275B9"/>
<stop offset="0.962" stop-color="#E49199"/>
<stop offset="1" stop-color="#F2A881"/>
</linearGradient>
<linearGradient id="paint3_linear_1_2" x1="167.229" y1="74.5775" x2="167.229" y2="12.2915" gradientUnits="userSpaceOnUse">
<stop stop-color="#3D05DD"/>
<stop offset="0.231" stop-color="#681EDF"/>
<stop offset="0.578" stop-color="#A442E2"/>
<stop offset="0.744" stop-color="#BC50E4"/>
<stop offset="0.79" stop-color="#BE54DF"/>
<stop offset="0.844" stop-color="#C660D1"/>
<stop offset="0.902" stop-color="#D275B9"/>
<stop offset="0.962" stop-color="#E49199"/>
<stop offset="1" stop-color="#F2A881"/>
</linearGradient>
<linearGradient id="paint4_linear_1_2" x1="89.4327" y1="68.9624" x2="89.4327" y2="4.00104" gradientUnits="userSpaceOnUse">
<stop stop-color="#3D05DD"/>
<stop offset="0.231" stop-color="#681EDF"/>
<stop offset="0.578" stop-color="#A442E2"/>
<stop offset="0.744" stop-color="#BC50E4"/>
<stop offset="0.79" stop-color="#BE54DF"/>
<stop offset="0.844" stop-color="#C660D1"/>
<stop offset="0.902" stop-color="#D275B9"/>
<stop offset="0.962" stop-color="#E49199"/>
<stop offset="1" stop-color="#F2A881"/>
</linearGradient>
</defs>
</svg>
