<svg width="181" height="363" viewBox="0 0 181 363" fill="none" xmlns="http://www.w3.org/2000/svg">
<path opacity="0.07" d="M33.7383 142.978C18.1923 129.542 7.82837 96.6864 7.82837 74.4814C7.83676 63.9414 10.1103 53.5274 14.4938 43.9501C18.8774 34.3727 25.2676 25.8576 33.2285 18.986C41.1894 12.1144 50.5333 7.04811 60.6226 4.13287C70.7119 1.21763 81.309 0.522111 91.6905 2.0938C102.072 3.66549 111.994 7.46738 120.778 13.24C129.562 19.0125 137.002 26.6199 142.591 35.5427C148.179 44.4656 151.784 54.4938 153.159 64.943C154.534 75.3922 153.647 86.0162 150.559 96.0899L123.559 142.539L33.7383 142.978Z" fill="white"/>
<path d="M109.597 132.792C113.429 128.646 122.951 115.267 123.92 83.9998C123.959 82.9658 123.687 81.9439 123.139 81.0674C122.592 80.1908 121.794 79.5002 120.849 79.0854C104.955 72.3322 87.5839 69.8491 70.444 71.8803C56.1745 73.7496 41.0932 77.2559 28.2972 84.3224C27.3584 84.8311 26.6004 85.6203 26.1282 86.5806C25.6559 87.5409 25.4928 88.6249 25.6613 89.6824C26.9319 97.4888 28.8295 105.179 31.3355 112.678C34.3014 121.404 38.4176 131.347 45.8089 137.34C46.8352 138.179 48.14 138.596 49.4604 138.507L106.196 134.439C107.497 134.344 108.713 133.755 109.597 132.792V132.792Z" fill="#F9D8C6"/>
<path d="M111.993 75.8149C110.453 104.114 107.584 115.935 105.267 120.901C104.887 121.712 104.237 122.365 103.431 122.749C102.624 123.132 101.709 123.223 100.843 123.005C73.2787 116.479 37.4246 126.712 37.4246 126.712C39.6678 130.973 42.7246 134.749 46.4205 137.824C47.1452 138.366 48.0424 138.622 48.9424 138.544L106.691 134.403C107.619 134.336 108.491 133.93 109.143 133.264C112.648 129.695 123.109 116.309 123.941 83.0236C123.959 82.2742 123.755 81.5364 123.355 80.9032C122.955 80.27 122.378 79.7696 121.696 79.4652C118.533 78.0643 115.294 76.8456 111.993 75.8149Z" fill="#F6C0A4"/>
<path d="M33.7383 142.978C18.1923 129.542 7.82837 96.6864 7.82837 74.4814C7.83676 63.9414 10.1103 53.5274 14.4938 43.9501C18.8774 34.3727 25.2676 25.8576 33.2285 18.986C41.1894 12.1144 50.5333 7.04811 60.6226 4.13287C70.7119 1.21763 81.309 0.522111 91.6905 2.0938C102.072 3.66549 111.994 7.46738 120.778 13.24C129.562 19.0125 137.002 26.6199 142.591 35.5427C148.179 44.4656 151.784 54.4938 153.159 64.943C154.534 75.3922 153.647 86.0162 150.559 96.0899" stroke="white" stroke-miterlimit="10"/>
<path d="M66.3624 59.8076C64.3177 53.1362 63.3377 46.182 63.4587 39.2031C63.3416 32.2017 64.3214 25.2253 66.3624 18.5293C68.3384 12.6993 71.0797 9.52937 74.0749 9.58833C77.0701 9.64729 79.744 12.8831 81.6648 18.6784C83.6286 25.2524 84.5713 32.0911 84.4596 38.9534C84.5676 45.8372 83.6251 52.697 81.6648 59.2943C79.744 65.1399 77.0528 68.4381 74.0749 68.5665C71.097 68.6948 68.3384 65.5908 66.3624 59.8076ZM69.2574 19.2403C67.3089 25.6976 66.3764 32.4207 66.4937 39.1667C66.3727 45.8919 67.3053 52.5945 69.2574 59.029C70.8966 63.8602 73.0247 66.574 75.0957 66.4856C77.1668 66.3971 79.2586 63.5376 80.8633 58.6423C82.7492 52.2562 83.6531 45.6185 83.5441 38.9586C83.6563 32.3196 82.7523 25.7026 80.8633 19.3391C79.2586 14.4837 77.1564 11.6692 75.0957 11.6346C73.035 11.5999 70.8966 14.3692 69.2574 19.2403V19.2403Z" fill="url(#paint0_linear_187_13285)"/>
<path d="M109.597 132.792C113.429 128.646 122.951 115.267 123.92 83.9998C123.959 82.9658 123.687 81.9439 123.139 81.0674C122.592 80.1908 121.794 79.5002 120.849 79.0854C104.955 72.3322 87.5839 69.8491 70.444 71.8803C56.1745 73.7496 41.0932 77.2559 28.2972 84.3224C27.3584 84.8311 26.6004 85.6203 26.1282 86.5806C25.6559 87.5409 25.4928 88.6249 25.6613 89.6824C26.9319 97.4888 28.8295 105.179 31.3355 112.678C34.3014 121.404 38.4176 131.347 45.8089 137.34C46.8352 138.179 48.14 138.596 49.4604 138.507L106.196 134.439C107.497 134.344 108.713 133.755 109.597 132.792V132.792Z" stroke="#F2A881" stroke-width="0.5" stroke-miterlimit="10"/>
<path d="M28.9863 154.25V139.076C28.9863 139.076 70.8741 120.001 123.126 132.14L115.785 147.747C115.785 147.747 67.8513 139.076 28.9863 154.25Z" fill="#3D05DD"/>
<path d="M28.9863 154.25L29.2731 146.736C29.2869 146.389 42.5735 141.726 66.8183 138.877C79.2393 137.445 91.7851 137.488 104.196 139.005C112.546 139.727 113.988 130.161 114.349 130.238C114.349 130.238 118.954 131.172 123.126 132.145L115.785 147.752C115.785 147.752 67.8513 139.076 28.9863 154.25Z" fill="#250091"/>
<path d="M55.9138 109.576C55.5759 111.67 55.8877 113.817 56.8069 115.727C58.6948 119.488 62.9371 121.102 66.8461 121.735C71.8035 122.538 77.2705 121.93 81.0499 118.311C84.0745 115.416 86.7674 109.059 83.9622 105.253C83.2658 104.452 82.3902 103.828 81.4072 103.432C80.4242 103.036 79.3617 102.88 78.3069 102.976C74.4049 103.09 72.7328 105.53 69.5407 106.954C66.7131 108.213 64.2603 105.94 61.5674 105.307C60.5678 105.045 59.5085 105.147 58.5765 105.594C57.6444 106.041 56.8995 106.804 56.4735 107.748C56.2071 108.33 56.0189 108.945 55.9138 109.576V109.576Z" fill="#F653A4"/>
<path d="M55.9138 109.576C55.5759 111.67 55.8877 113.817 56.8069 115.727C58.6948 119.488 62.9371 121.102 66.8461 121.735C71.8035 122.538 77.2705 121.93 81.0499 118.311C84.0745 115.416 86.7674 109.059 83.9622 105.253C83.2658 104.452 82.3902 103.828 81.4072 103.432C80.4242 103.036 79.3617 102.88 78.3069 102.976C74.4049 103.09 72.7328 105.53 69.5407 106.954C66.7131 108.213 64.2603 105.94 61.5674 105.307C60.5678 105.045 59.5085 105.147 58.5765 105.594C57.6444 106.041 56.8995 106.804 56.4735 107.748C56.2071 108.33 56.0189 108.945 55.9138 109.576V109.576Z" stroke="#E80078" stroke-miterlimit="10"/>
<path d="M28.9863 154.25V139.076C28.9863 139.076 70.8741 120.001 123.126 132.14L115.785 147.747C115.785 147.747 67.8513 139.076 28.9863 154.25Z" stroke="#3D05DD" stroke-width="0.5" stroke-miterlimit="10"/>
<path d="M52.4823 96.7164C56.9977 96.5531 60.3774 88.5979 60.031 78.9481C59.6846 69.2983 55.7433 61.608 51.2279 61.7714C46.7125 61.9347 43.3328 69.8899 43.6792 79.5397C44.0256 89.1895 47.9669 96.8798 52.4823 96.7164Z" fill="black"/>
<g opacity="0.25">
<path d="M140.734 69.2705C140.629 69.2913 140.52 69.3051 140.411 69.3156C139.959 69.3558 139.504 69.3063 139.071 69.1698C138.638 69.0333 138.236 68.8126 137.888 68.5201C137.54 68.2277 137.253 67.8693 137.043 67.4655C136.833 67.0616 136.705 66.6202 136.665 66.1664C134.398 40.4013 120.269 28.7829 120.126 28.6702C119.406 28.1004 118.942 27.2671 118.835 26.3536C118.728 25.4401 118.986 24.5212 119.554 23.7992C120.121 23.0771 120.951 22.611 121.861 22.5033C122.771 22.3957 123.687 22.6553 124.406 23.2252C125.083 23.761 141.004 36.6332 143.548 65.556C143.623 66.4156 143.377 67.2726 142.857 67.9594C142.336 68.6463 141.58 69.1137 140.734 69.2705Z" fill="white"/>
</g>
<path opacity="0.25" d="M142.32 83.9646C144.079 83.6404 145.069 80.9912 144.53 78.0476C143.992 75.1039 142.13 72.9805 140.37 73.3047C138.611 73.629 137.621 76.2781 138.159 79.2218C138.698 82.1655 140.56 84.2889 142.32 83.9646Z" fill="white"/>
<path d="M171.742 125.06C180.378 111.764 187.288 89.2212 171.742 81.7074C156.196 74.1936 135.468 111.764 135.468 111.764C135.468 111.764 122.741 134.308 116.906 146.38C55.7376 138.799 28.9485 154.539 28.9485 154.539C3.6137 195.58 -3.87083 238.353 5.91795 257.428C13.4267 272.064 25.6734 266.121 30.9642 262.561C34.8991 287.629 42.5253 311.962 55.7549 321.589C69.5735 331.647 85.7931 328.198 95.3694 314.124C97.7062 316.946 100.567 319.285 103.792 321.012C130.854 334.885 146.4 311.185 138.915 292.689C131.431 274.193 120.977 213.587 134.78 182.862C144.718 160.752 163.105 138.355 171.742 125.06Z" fill="#E5DDFA"/>
<path d="M73.1783 236.041C73.1783 236.041 74.7623 290.665 94.0496 314.075C91.8078 317.993 88.6386 321.295 84.8225 323.69C81.0064 326.084 76.6611 327.497 72.1713 327.804C72.1713 327.804 58.1368 329.322 45.9729 311.764C45.9729 311.764 71.8828 314.799 73.3217 302.081C74.7605 289.363 64.8302 242.761 73.1783 236.041Z" fill="#B59FF2"/>
<path d="M26.0362 190.088C26.0362 190.088 25.6043 242.761 30.2837 261.763C30.2837 261.763 23.2707 268.082 15.7447 266.532C7.32398 264.798 0.342129 256.127 1.35089 232.14C2.62527 234.074 4.509 235.524 6.70093 236.258C8.89286 236.991 11.2664 236.966 13.4422 236.185C21.5019 233.584 19.3428 201.937 21.4311 196.157C23.2344 191.161 26.0362 190.088 26.0362 190.088Z" fill="#B59FF2"/>
<path d="M113.087 153.166L116.11 146.339C116.11 146.339 58.7847 138.535 28.1246 154.576C28.1246 154.576 28.0261 156.882 36.4365 154.25C50.3462 150.036 64.7697 147.775 79.2967 147.53C90.7403 147.096 109.957 147.313 113.087 153.166Z" fill="#B59FF2"/>
<path d="M26.1086 190.521C25.9721 206.794 26.2364 223.54 27.4767 239.77C29.8949 271.386 37.6247 309.024 54.898 321.596C68.9775 331.845 84.8378 328.678 94.3382 313.938" stroke="#3D05DD" stroke-linecap="round" stroke-linejoin="round"/>
<path d="M72.9954 236.041C72.9954 236.041 75.8748 307.139 102.935 321.012C129.996 334.885 145.543 311.185 138.059 292.689C130.574 274.193 120.12 213.587 133.923 182.862C143.856 160.752 162.241 138.355 170.878 125.06C179.515 111.764 186.424 89.2212 170.878 81.7074C155.332 74.1936 134.604 111.764 134.604 111.764C134.604 111.764 115.026 146.446 113.299 152.805" stroke="#3D05DD" stroke-linecap="round" stroke-linejoin="round"/>
<path d="M116.044 146.378C54.8756 138.797 28.0865 154.537 28.0865 154.537C2.75174 195.578 -4.56003 238.266 5.05601 257.426C13.836 274.918 29.7084 262.195 29.7084 262.195" stroke="#3D05DD" stroke-linecap="round" stroke-linejoin="round"/>
<path d="M98.0367 79.1029C98.89 69.3507 95.9331 61.1233 91.4324 60.7264C86.9317 60.3295 82.5914 67.9134 81.7381 77.6656C80.8848 87.4178 83.8417 95.6452 88.3424 96.0421C92.8431 96.439 97.1834 88.8551 98.0367 79.1029Z" fill="black"/>
<path d="M79.7699 39.0088C79.8036 40.5719 79.2275 42.0864 78.1645 43.229C77.1015 44.3717 75.6358 45.052 74.0801 45.125C73.3082 45.1209 72.5449 44.962 71.835 44.6576C71.1251 44.3532 70.483 43.9095 69.9464 43.3525C69.4097 42.7955 68.9893 42.1364 68.7099 41.414C68.4305 40.6916 68.2978 39.9205 68.3194 39.1458C68.284 37.5701 68.869 36.0439 69.9475 34.8985C71.026 33.7531 72.511 33.081 74.0801 33.028C74.8459 33.0423 75.6012 33.2088 76.3026 33.5178C77.0039 33.8268 77.6373 34.2721 78.1663 34.8282C78.6953 35.3842 79.1094 36.04 79.3846 36.7575C79.6598 37.4751 79.7908 38.2402 79.7699 39.0088V39.0088Z" fill="#77EEFF"/>
<path d="M97.6495 53.1746C96.2279 55.8816 92.4122 56.8648 86.8588 55.9266C80.4734 54.6159 74.3626 52.2039 68.7979 48.7978C62.8619 45.4517 57.5252 41.1327 53.0084 36.0193C49.0355 31.2384 47.6916 27.0436 49.2669 24.2413C50.8423 21.4391 55 20.572 60.9385 21.7581C67.4458 23.2722 73.6521 25.8769 79.2966 29.4627C84.9392 32.7804 89.9912 37.0194 94.2449 42.0054C97.8636 46.5209 99.0659 50.4747 97.6495 53.1746ZM50.4934 26.2459C49.4034 28.1881 50.6972 31.6043 54.024 35.5962C58.3917 40.5284 63.5469 44.6964 69.2781 47.929C74.6531 51.2306 80.5548 53.5771 86.7241 54.8654C91.3775 55.6613 94.5938 55.0388 95.5835 53.1538C96.5733 51.2689 95.397 48.0469 92.35 44.2684C88.2147 39.4595 83.3113 35.3748 77.8405 32.1817C72.3705 28.7216 66.3595 26.2102 60.0593 24.7529C55.0691 23.7662 51.5712 24.3072 50.4847 26.2459H50.4934Z" fill="url(#paint1_linear_187_13285)"/>
<path d="M49.2671 54.503C47.6918 51.7388 49.0287 47.5111 53.0085 42.6366C57.5223 37.417 62.8558 32.9734 68.798 29.4818C74.3446 25.9508 80.45 23.3945 86.8521 21.9229C92.4054 20.853 96.2194 21.7495 97.6427 24.4183C99.066 27.087 97.8569 31.0668 94.2381 35.669C85.4513 45.8274 73.866 53.1475 60.9421 56.707C55.0001 58.0353 50.8372 57.2585 49.2671 54.503ZM95.5734 24.4928C94.5836 22.6356 91.3673 22.0842 86.7139 22.9911C80.5267 24.4328 74.6278 26.9171 69.2679 30.3384C63.5313 33.7127 58.3794 38.001 54.0138 43.0355C50.687 47.1054 49.3932 50.5527 50.4831 52.4689C51.5731 54.3851 55.0658 54.8394 60.0388 53.7383C72.5533 50.2985 83.7854 43.2434 92.3398 33.4494C95.3868 29.6032 96.5614 26.3448 95.5734 24.4928Z" fill="url(#paint2_linear_187_13285)"/>
<g style="mix-blend-mode:multiply">
<path d="M124.995 347.51C116.084 347.351 107.188 348.272 98.4975 350.256C92.3551 348.299 82.0205 347.015 70.3041 347.015C51.4606 347.015 36.1841 350.337 36.1841 354.435C36.1841 358.532 51.4606 361.855 70.3041 361.855C79.2139 362.015 88.1102 361.092 96.7996 359.108C102.944 361.064 113.278 362.349 124.995 362.349C143.838 362.349 159.113 359.027 159.113 354.929C159.113 350.831 143.838 347.51 124.995 347.51Z" fill="#D7D7D7"/>
</g>
<path opacity="0.36" d="M47.7258 72.3765C48.2941 69.4385 47.616 66.8348 46.2113 66.561C44.8065 66.2871 43.2071 68.4468 42.6388 71.3848C42.0705 74.3228 42.7486 76.9265 44.1533 77.2003C45.5581 77.4741 47.1575 75.3144 47.7258 72.3765Z" fill="white"/>
<path opacity="0.36" d="M86.7945 71.5696C87.4325 68.6456 86.8163 66.026 85.4182 65.7186C84.0202 65.4112 82.3697 67.5323 81.7317 70.4563C81.0937 73.3804 81.7099 75.9999 83.1079 76.3074C84.506 76.6148 86.1565 74.4936 86.7945 71.5696Z" fill="white"/>
<path d="M162.391 93.8381C165.856 91.0431 167.581 87.4237 166.244 85.7541C164.908 84.0844 161.016 84.9966 157.551 87.7916C154.087 90.5866 152.361 94.206 153.698 95.8756C155.034 97.5453 158.926 96.6331 162.391 93.8381Z" fill="#B59FF2"/>
<defs>
<linearGradient id="paint0_linear_187_13285" x1="63.4487" y1="39.0789" x2="95.2516" y2="39.0789" gradientUnits="userSpaceOnUse">
<stop stop-color="#77EEFF"/>
<stop offset="0.204" stop-color="#76EBFD"/>
<stop offset="0.341" stop-color="#72E2F8"/>
<stop offset="0.459" stop-color="#6DD3EF"/>
<stop offset="0.567" stop-color="#66BDE3"/>
<stop offset="0.666" stop-color="#5CA1D3"/>
<stop offset="0.76" stop-color="#507FBF"/>
<stop offset="0.85" stop-color="#4256A8"/>
<stop offset="0.935" stop-color="#33298E"/>
<stop offset="1" stop-color="#250077"/>
</linearGradient>
<linearGradient id="paint1_linear_187_13285" x1="61.3719" y1="48.2508" x2="84.1624" y2="12.3239" gradientUnits="userSpaceOnUse">
<stop stop-color="#77EEFF"/>
<stop offset="0.204" stop-color="#76EBFD"/>
<stop offset="0.341" stop-color="#72E2F8"/>
<stop offset="0.459" stop-color="#6DD3EF"/>
<stop offset="0.567" stop-color="#66BDE3"/>
<stop offset="0.666" stop-color="#5CA1D3"/>
<stop offset="0.76" stop-color="#507FBF"/>
<stop offset="0.85" stop-color="#4256A8"/>
<stop offset="0.935" stop-color="#33298E"/>
<stop offset="1" stop-color="#250077"/>
</linearGradient>
<linearGradient id="paint2_linear_187_13285" x1="99.762" y1="57.9492" x2="59.5071" y2="3.78467" gradientUnits="userSpaceOnUse">
<stop stop-color="#77EEFF"/>
<stop offset="0.378" stop-color="#76ECFD"/>
<stop offset="0.514" stop-color="#74E5FA"/>
<stop offset="0.611" stop-color="#6FD9F3"/>
<stop offset="0.689" stop-color="#6AC8E9"/>
<stop offset="0.757" stop-color="#62B2DD"/>
<stop offset="0.816" stop-color="#5997CD"/>
<stop offset="0.87" stop-color="#4D76BA"/>
<stop offset="0.92" stop-color="#4051A5"/>
<stop offset="0.964" stop-color="#32288D"/>
<stop offset="1" stop-color="#250077"/>
</linearGradient>
</defs>
</svg>
